<?xml version="1.0" encoding="utf-8"?>
<!-- Generator: Adobe Illustrator 25.4.1, SVG Export Plug-In . SVG Version: 6.00 Build 0)  -->
<svg version="1.1" id="SurrealDB" xmlns="http://www.w3.org/2000/svg" xmlns:xlink="http://www.w3.org/1999/xlink" x="0px" y="0px"
	 viewBox="0 0 840 588.1" style="enable-background:new 0 0 840 588.1;" xml:space="preserve">
<path d="M459.3,268.1h-86.8v-78h86.8V268.1L459.3,268.1z M459.3,0h-86.8v79.7h86.8V0z M561.9,190h-86.8v78h86.8V190L561.9,190z
	 M356.8,95.4H270v78.9h86.8V95.4z M459.3,95.4h-86.8v78.9h86.8V95.4z M822.5,226.7c-18.9-12.7-62.5-17.3-95.9-11
	c-4.3-31.5-21.9-58.9-53.9-83.6l-18.4-12.2l-12.2,18.4c-24.1,36.5-30.7,96.6-4.9,136.2c-11.4,6.2-33.9,14.6-63.5,14H3.2
	C-8.2,355.1,10.8,441.8,61,501.2c48.6,57.6,121.6,86.9,217,86.9c206.6,0,359.5-95.1,431-268c28.1,0.5,88.7,0.1,119.8-59.3
	c2-3.3,8.7-17.3,11.2-22.4L822.5,226.7L822.5,226.7z M151.8,190H65.2v78H152v-78H151.8z M254.3,190h-86.8v78h86.8V190z M356.8,190
	H270v78h86.8V190z M254.3,95.4h-86.8v78.9h86.8V95.4z"/>
</svg>
