<?xml version="1.0" encoding="utf-8"?>
<!-- Generator: Adobe Illustrator 26.3.1, SVG Export Plug-In . SVG Version: 6.00 Build 0)  -->
<svg version="1.1" id="SurrealDB_World" xmlns="http://www.w3.org/2000/svg" xmlns:xlink="http://www.w3.org/1999/xlink" x="0px"
	 y="0px" viewBox="0 0 3419.7 544.7" style="enable-background:new 0 0 3419.7 544.7;" xml:space="preserve">
<style type="text/css">
	.st0{fill:url(#DB_00000057869985989920477010000003051946593814469543_);}
</style>
<linearGradient id="DB_00000167394635344360768100000007505375504800709257_" gradientUnits="userSpaceOnUse" x1="2688.218" y1="652.6857" x2="3124.7051" y2="-103.3324" gradientTransform="matrix(1 0 0 -1 0 542.7232)">
	<stop  offset="0" style="stop-color:#FF00A0"/>
	<stop  offset="1" style="stop-color:#9600FF"/>
</linearGradient>
<path id="DB_00000016758915625124994280000016461386885611437752_" style="fill:url(#DB_00000167394635344360768100000007505375504800709257_);" d="
	M3348.8,253.9c84.5-64.2,39.3-205.8-52.4-238C3276.2,7.6,3254.8,4,3232.2,4h-221.3v536.5c13.1,0,251,0,251,0
	c42.8,0,83.3-15.5,113-44C3441.7,432.3,3434.5,301.4,3348.8,253.9z M3118,111h0.1h110.6c28.6,0,52.3,20.2,51.2,50
	c1.2,28.6-22.6,52.4-51.2,51.2h-110.6h-0.1V111z M3256,433.5h-138V316.9h138c28.6-1.2,52.4,30.9,51.2,59.5
	C3308.4,403.7,3284.6,434.7,3256,433.5z M2694.9,4h-204.1v536.6h204.1c148.2,0,268.3-120.1,268.3-268.3S2843,4,2694.9,4z
	 M2694.9,433.4c0,0,0,0-0.1,0h-97V111h96.9c0,0,0,0,0.1,0c89.1,0,161.3,72.2,161.3,161.2S2783.9,433.4,2694.9,433.4z"/>
<path id="l_00000103242653431021337910000013777398160531640960_" d="M2335.9,4v536.6H2443V4H2335.9z"/>
<path id="a_00000114047365147663133050000011517088098890313346_" d="M2288.1,334.7c0-115.9-94-209.9-209.9-209.9
	c-115.9,0-209.9,94-209.9,209.9s94,209.9,209.9,209.9c37.3,0,72.4-9.8,102.8-26.9v22.8h107.1L2288.1,334.7
	C2288.1,334.8,2288.1,334.8,2288.1,334.7z M2078.2,437.5c-56.8,0-102.8-46-102.8-102.8s46-102.8,102.8-102.8
	c56.8,0,102.8,46,102.8,102.8S2135,437.5,2078.2,437.5z"/>
<path id="e_00000011725667220689958660000006084327059228220294_" d="M1610.7,437.4c-43.3,0-80.4-26.8-95.5-64.7h301.9
	c2.3-12.3,3.4-25.1,3.4-38c0-115.9-94-209.9-209.9-209.9s-209.9,94-209.9,209.9s94,209.9,209.9,209.9c92.3,0,170.7-59.6,198.8-142.3
	h-121.3C1669.3,423.8,1641.6,437.4,1610.7,437.4z M1610.7,231.9c43.3,0,80.4,26.8,95.5,64.7h-191
	C1530.3,258.7,1567.4,231.9,1610.7,231.9z"/>
<path id="r_00000127037221966445926390000000420214718076556192_" d="M1376.4,124.9c-91.6,0-172.5,59.4-199.9,146.2
	c-5.9,20.2-9.5,41.6-9.5,63.1v113.7v92.5h107.1V334.2C1277,263.4,1327,228,1376.8,228V124.9C1376.7,124.9,1376.5,124.9,1376.4,124.9
	z"/>
<path id="r_00000038389045402950038880000017212340058551358609_" d="M1142.7,124.9c-91.6,0-172.5,59.4-199.9,146.2
	c-5.9,20.2-9.5,41.6-9.5,63.1v113.7v92.5h107.1V334.2c2.9-70.8,52.9-106.2,102.7-106.2V124.9C1143,124.9,1142.8,124.9,1142.7,124.9z
	"/>
<path id="u_00000165935716996902656450000018140784225834785210_" d="M778.4,335.3c-5.9,141.6-199.9,141.6-204.6,0V221.6v-92.5
	H466.7v92.5v113.6c0,21.4,3.6,42.8,9.5,63.1c27.4,86.9,108.3,146.3,199.9,146.3S848.6,485.2,876,398.4c5.9-20.2,9.5-41.6,9.5-63.1
	V221.6v-92.5H778.4L778.4,335.3L778.4,335.3z"/>
<path id="S_00000166662375492201169010000009477598989473204101_" d="M271.8,226.8c-45.1-7.2-98.5-15.6-134.1-44.5
	c-22.6-18.2-13.1-47,10.7-62.8c46.3-30.3,123.3-13.3,138.8,42.1h121C408.2,62.8,303.8-1.2,206.4,0C151.7,0,100.8,13.3,61.6,45.8
	C14.2,84.4-9.5,157.9,20.1,212.3c48.7,80.8,166.2,79.6,245.7,112c21.4,10.9,34.5,23,34.5,45.8c0,49.5-43.9,70-93.8,70
	c-47.4,1.2-83-35-87.8-79.6H0c3.6,174.9,232.6,237.7,361.9,133.8c36.8-31.4,57-76,57-124.1C420,291.8,346.5,238.8,271.8,226.8z"/>
</svg>
