<?xml version="1.0" encoding="utf-8"?>
<!-- Generator: Adobe Illustrator 26.3.1, SVG Export Plug-In . SVG Version: 6.00 Build 0)  -->
<svg version="1.1" id="Layer_1" xmlns="http://www.w3.org/2000/svg" xmlns:xlink="http://www.w3.org/1999/xlink" x="0px" y="0px"
	 viewBox="0 0 448 512" style="enable-background:new 0 0 448 512;" xml:space="preserve">
<style type="text/css">
	.st0{fill:#AEB8CA;}
</style>
<path class="st0" d="M190.4,116.5c-11.3-0.5-21.6,8-22.3,19.6c-0.8,11.6,8,21.6,19.5,21.6c69.6,4.5,129.8,64.8,134.4,134.4
	c0.7,11.1,10,19.6,20.9,19.6c0.5,0,0.9,0,1.4-0.1c11.6-0.7,20.3-10.7,19.6-22.3C358.1,200.2,280.3,122.4,190.4,116.5z M196,32.4
	c-15.5,0-28,12.5-28,28s12.5,28,28,28c108.1,0,196,87.9,196,196c0,15.5,12.5,28,28,28s28-12.5,28-28C448,145.5,334.9,32.4,196,32.4z
	 M150.8,230.9c-12.8-2.5-24.8,7.9-24.8,20.8v44.1c0,9,6.2,16.1,14.7,18.5c15.9,5.9,27.4,21.3,27.4,38.6c0,23.2-18.8,41.2-42,41.2
	c-23.2,0-42-18.8-42-41.2V137.4c0-11.6-9.4-20.2-21-20.2l-42,0c-11.6-0.8-21,8.7-21,20.2v216.2c0,78.3,71.9,140.2,153.1,123.1
	c47.6-10.1,86-48.6,96.1-96C264.4,309,216.8,244,150.8,230.9z"/>
</svg>
