<svg width="588" height="512" viewBox="0 0 588 512" fill="none" xmlns="http://www.w3.org/2000/svg">
<path d="M498.409 69.811C498.209 69.511 498.009 69.2111 497.609 69.1111C459.517 51.6147 419.225 39.1173 377.934 32.0187C377.134 31.9188 376.434 32.2187 376.034 32.9186C370.535 42.8165 365.536 53.1144 361.137 63.5123C316.546 56.7137 271.256 56.7137 226.765 63.5123C222.266 53.0144 217.267 42.8165 211.668 32.9186C211.268 32.2187 210.468 31.9188 209.768 32.0187C168.477 39.1173 128.185 51.6147 90.0928 69.1111C89.7929 69.2111 89.4929 69.511 89.293 69.811C13.1087 183.688 -7.78704 294.665 2.41086 404.342C2.51084 404.842 2.7108 405.342 3.2107 405.742C47.6016 438.635 97.1913 463.73 149.98 479.927C150.78 480.126 151.58 479.926 152.08 479.227C163.378 463.83 173.476 447.433 182.074 430.437C182.574 429.537 182.174 428.437 181.274 427.937C181.174 427.937 181.174 427.837 181.074 427.837C165.277 421.738 149.88 414.44 135.184 405.942C134.284 405.442 133.984 404.242 134.484 403.342C134.584 403.142 134.784 402.942 134.984 402.842C138.083 400.543 141.182 398.143 144.082 395.744C144.582 395.344 145.381 395.244 145.981 395.444C242.161 439.335 346.34 439.335 441.42 395.444C442.02 395.144 442.82 395.244 443.32 395.644C446.219 398.043 449.319 400.543 452.418 402.842C453.218 403.442 453.418 404.642 452.818 405.442C452.718 405.642 452.518 405.842 452.318 405.942C437.621 414.54 422.324 421.838 406.428 427.737C405.428 428.137 404.928 429.237 405.328 430.137C405.328 430.237 405.428 430.237 405.428 430.337C414.226 447.333 424.224 463.63 435.422 479.127C435.922 479.827 436.721 480.026 437.521 479.827C490.41 463.63 540.1 438.535 584.591 405.642C584.991 405.342 585.291 404.842 585.391 404.242C597.588 277.568 564.795 167.491 498.409 69.811ZM196.471 337.556C167.477 337.556 143.682 310.961 143.682 278.368C143.682 245.775 167.077 219.18 196.471 219.18C226.165 219.18 249.76 245.975 249.26 278.368C249.26 310.961 225.865 337.556 196.471 337.556ZM391.831 337.556C362.837 337.556 339.042 310.961 339.042 278.368C339.042 245.775 362.437 219.18 391.831 219.18C421.525 219.18 445.12 245.975 444.62 278.368C444.62 310.961 421.425 337.556 391.831 337.556Z" fill="#AEB8CA"/>
</svg>
