<?xml version="1.0" encoding="utf-8"?>
<!-- Generator: Adobe Illustrator 26.3.1, SVG Export Plug-In . SVG Version: 6.00 Build 0)  -->
<svg version="1.1" id="Layer_1" xmlns="http://www.w3.org/2000/svg" xmlns:xlink="http://www.w3.org/1999/xlink" x="0px" y="0px"
	 viewBox="0 0 448 512" style="enable-background:new 0 0 448 512;" xml:space="preserve">
<style type="text/css">
	.st0{fill:#AEB8CA;}
</style>
<path class="st0" d="M149.8,389.3c0,1.8-2.1,3.3-4.7,3.3c-3,0.3-5.1-1.2-5.1-3.3c0-1.8,2.1-3.3,4.7-3.3
	C147.5,385.8,149.8,387.2,149.8,389.3z M121.8,385.2c-0.6,1.8,1.2,3.9,3.9,4.4c2.3,0.9,5.1,0,5.6-1.8c0.5-1.8-1.2-3.9-3.9-4.7
	C125,382.5,122.4,383.4,121.8,385.2L121.8,385.2z M161.7,383.7c-2.6,0.6-4.4,2.3-4.2,4.4c0.3,1.8,2.6,3,5.3,2.3
	c2.6-0.6,4.4-2.3,4.2-4.2C166.7,384.6,164.3,383.4,161.7,383.7z M221.1,37.6C95.8,37.6,0,132.7,0,258C0,358.2,63,443.9,153.1,474
	c11.6,2.1,15.6-5.1,15.6-10.9c0-5.6-0.3-36.5-0.3-55.5c0,0-63.2,13.5-76.5-26.9c0,0-10.3-26.3-25.1-33.1c0,0-20.7-14.2,1.4-13.9
	c0,0,22.5,1.8,34.9,23.3c19.8,34.9,52.9,24.8,65.8,18.9c2.1-14.5,7.9-24.5,14.5-30.4C133,339.9,82,332.6,82,245.7
	c0-24.8,6.9-37.3,21.3-53.2c-2.3-5.9-10-30.1,2.3-61.3c18.9-5.9,62.3,24.4,62.3,24.4c18.1-5.1,37.5-7.7,56.7-7.7s38.7,2.6,56.7,7.7
	c0,0,43.4-30.3,62.3-24.4c12.4,31.3,4.7,55.5,2.3,61.3c14.5,16,23.3,28.5,23.3,53.2c0,87.2-53.2,94.1-103.7,99.8
	c8.3,7.1,15.4,20.7,15.4,41.9c0,30.4-0.3,68.1-0.3,75.5c0,5.9,4.2,13,15.6,10.9C386.8,443.9,448,358.2,448,258
	C448,132.7,346.4,37.6,221.1,37.6z M87.8,349.1c-1.2,0.9-0.9,3,0.6,4.7c1.4,1.4,3.5,2.1,4.7,0.9c1.2-0.9,0.9-3-0.6-4.7
	C91,348.6,89,347.9,87.8,349.1z M78,341.8c-0.6,1.2,0.3,2.6,2.1,3.5c1.4,0.9,3.3,0.6,3.9-0.6c0.6-1.2-0.3-2.6-2.1-3.5
	C80.1,340.6,78.7,340.9,78,341.8z M107.3,374c-1.4,1.2-0.9,3.9,1.2,5.6c2.1,2.1,4.7,2.3,5.9,0.9c1.2-1.2,0.6-3.9-1.2-5.6
	C111.2,372.8,108.5,372.5,107.3,374z M97,360.7c-1.4,0.9-1.4,3.3,0,5.3c1.4,2.1,3.9,3,5.1,2.1c1.4-1.2,1.4-3.5,0-5.6
	C100.8,360.4,98.5,359.5,97,360.7L97,360.7z"/>
</svg>
