<svg width="546" height="512" viewBox="0 0 546 512" fill="none" xmlns="http://www.w3.org/2000/svg">
<g clip-path="url(#clip0_10011_1393)">
<path d="M534.8 124.1C528.5 100.4 510 81.8 486.5 75.5C443.9 64 273.1 64 273.1 64C273.1 64 102.3 64 59.7 75.5C36.2 81.8 17.7 100.4 11.4 124.1C0 167 0 256.4 0 256.4C0 256.4 0 345.8 11.4 388.7C17.7 412.3 36.2 430.2 59.7 436.5C102.3 448 273.1 448 273.1 448C273.1 448 443.9 448 486.5 436.5C510 430.2 528.5 412.3 534.8 388.7C546.2 345.8 546.2 256.4 546.2 256.4C546.2 256.4 546.2 166.9 534.8 124.1ZM217.2 337.6V175.2L359.9 256.4L217.2 337.6Z" fill="#AEB8CA"/>
</g>
<defs>
<clipPath id="clip0_10011_1393">
<rect width="546" height="512" fill="white"/>
</clipPath>
</defs>
</svg>
