<?xml version="1.0" encoding="utf-8"?>
<!-- Generator: Adobe Illustrator 25.4.1, SVG Export Plug-In . SVG Version: 6.00 Build 0)  -->
<svg version="1.1" id="SurrealDB" xmlns="http://www.w3.org/2000/svg" xmlns:xlink="http://www.w3.org/1999/xlink" x="0px" y="0px"
	 viewBox="0 0 840 768.8" style="enable-background:new 0 0 840 768.8;" xml:space="preserve">
<style type="text/css">
	.st0{fill:#FFFFFF;}
</style>
<path class="st0" d="M637.1,406.2c-0.3-63,28.1-110.5,85.8-145.5c-32.3-46.2-81-71.6-145.4-76.5c-60.9-4.8-127.5,35.5-151.9,35.5
	c-25.7,0-84.8-33.8-131.1-33.8C198.8,187.4,97,262.2,97,414.5c0,45,8.2,91.4,24.7,139.4c22,63,101.3,217.4,184,214.9
	c43.2-1,73.8-30.7,130.1-30.7c54.6,0,82.9,30.7,131.1,30.7C650.3,767.5,722,627.1,743,563.9C631.1,511.2,637.1,409.5,637.1,406.2
	L637.1,406.2z M540,124.4C586.9,68.8,582.6,18.2,581.2,0C539.8,2.4,492,28.1,464.7,59.9c-30,34-47.7,76-43.9,123.4
	C465.5,186.7,506.3,163.7,540,124.4z"/>
</svg>
