<?xml version="1.0" encoding="utf-8"?>
<!-- Generator: Adobe Illustrator 25.4.1, SVG Export Plug-In . SVG Version: 6.00 Build 0)  -->
<svg version="1.1" id="SurrealDB" xmlns="http://www.w3.org/2000/svg" xmlns:xlink="http://www.w3.org/1999/xlink" x="0px" y="0px"
	 viewBox="0 0 840 768.9" style="enable-background:new 0 0 840 768.9;" xml:space="preserve">
<style type="text/css">
	.st0{fill:#FFFFFF;}
</style>
<path class="st0" d="M415,185.1c1.5,0.8,2.7,2.6,4.5,2.6c1.7,0,4.2-0.6,4.4-2.3c0.3-2.1-2.9-3.5-4.8-4.4c-2.6-1.1-5.9-1.5-8.3-0.2
	c-0.6,0.3-1.2,1.1-0.9,1.7C410.4,184.5,413.4,184.2,415,185.1L415,185.1z M382.2,187.7c1.8,0,3-1.8,4.5-2.6c1.7-0.9,4.7-0.6,5.3-2.4
	c0.3-0.6-0.3-1.4-0.9-1.7c-2.4-1.4-5.7-0.9-8.3,0.2c-2,0.9-5.1,2.3-4.8,4.4C378.1,187.1,380.7,187.8,382.2,187.7z M714.1,606.2
	c-5.4-6-8-17.4-10.8-29.6c-2.7-12.2-5.9-25.2-15.8-33.6c-2-1.7-3.9-3.2-6-4.4c-2-1.2-4.1-2.3-6.2-3c13.8-41,8.4-81.8-5.6-118.7
	c-17.1-45.2-47-84.7-69.8-111.7c-25.7-32.3-50.6-62.9-50.1-108.1C550.6,128.2,557.5,0.1,436,0C282.3-0.3,320.7,155.2,319.1,203
	c-2.6,35.1-9.6,62.8-33.8,97.1c-28.3,33.8-68.3,88.3-87.2,145.2c-9,26.9-13.2,54.2-9.3,80c-9.8,8.7-17.1,22.1-24.9,30.3
	c-6.3,6.5-15.5,8.9-25.5,12.5c-10.1,3.6-21,9-27.8,21.8c-3.2,5.9-4.2,12.2-4.2,18.6c0,5.9,0.9,11.9,1.8,17.7
	c1.8,12.2,3.8,23.6,1.2,31.2c-7.8,21.6-8.9,36.6-3.3,47.6c5.7,11,17.1,15.8,30.2,18.5c26,5.4,61.3,4.1,89,18.8
	c29.7,15.6,59.9,21.2,83.9,15.6c17.4-3.9,31.7-14.4,38.9-30.3c18.8-0.2,39.5-8.1,72.5-9.9c22.4-1.8,50.4,8,82.7,6.2
	c0.9,3.5,2.1,6.9,3.8,10.1v0.2c12.5,25.1,35.7,36.5,60.5,34.5c24.9-2,51.2-16.5,72.5-41.9c20.4-24.6,54-34.8,76.4-48.3
	c11.1-6.8,20.1-15.2,20.9-27.5C738,638.5,730.8,624.8,714.1,606.2L714.1,606.2z M419.4,131.1c14.7-33.3,51.3-32.7,66.1-0.6
	c9.8,21.3,5.4,46.4-6.5,60.7c-2.4-1.2-8.9-3.9-18.9-7.4c1.7-1.8,4.7-4.1,5.9-6.9c7.2-17.7-0.3-40.5-13.7-41
	c-11-0.8-20.9,16.2-17.7,34.5c-6.2-3-14.1-5.3-19.5-6.6C413.5,153.4,414.6,141.9,419.4,131.1z M358.3,113.8
	c15.2,0,31.2,21.3,28.7,50.3c-5.3,1.5-10.7,3.8-15.3,6.9c1.8-13.4-5-30.2-14.4-29.4c-12.6,1.1-14.7,31.8-2.7,42.2
	c1.5,1.2,2.9-0.3-8.9,8.3C322.3,170.1,329.9,113.8,358.3,113.8z M337.9,204.9c9.3-6.9,20.4-15,21.2-15.8
	c7.1-6.6,20.3-21.3,41.9-21.3c10.7,0,23.4,3.5,38.9,13.4c9.5,6.2,17,6.6,33.9,14c12.6,5.3,20.6,14.6,15.8,27.3
	c-3.9,10.7-16.5,21.6-34.1,27.2c-16.7,5.4-29.7,24-57.3,22.4c-5.9-0.3-10.5-1.5-14.4-3.2c-12-5.3-18.3-15.6-30-22.5
	c-12.9-7.2-19.8-15.6-22.1-23C329.5,216,331.6,209.9,337.9,204.9L337.9,204.9z M342.8,706.3c-4.1,52.7-65.9,51.6-113,27
	c-44.9-23.7-103-9.8-114.8-32.9c-3.6-7.1-3.6-19.1,3.9-39.6v-0.3c3.6-11.4,0.9-24-0.9-35.9c-1.8-11.7-2.7-22.5,1.4-30
	c5.3-10.1,12.8-13.7,22.2-17c15.5-5.6,17.7-5.1,29.4-14.9c8.3-8.6,14.3-19.4,21.5-27c7.7-8.3,15-12.2,26.6-10.4
	c12.2,1.8,22.7,10.2,32.9,24l29.4,53.4C295.5,632.8,346,675.6,342.8,706.3L342.8,706.3z M340.7,667.5c-6.2-9.9-14.4-20.4-21.6-29.4
	c10.7,0,21.3-3.3,25.1-13.4c3.5-9.3,0-22.4-11.1-37.4c-20.3-27.3-57.5-48.8-57.5-48.8c-20.3-12.6-31.7-28.1-36.9-44.9
	s-4.5-35-0.5-52.8c7.8-34.4,27.9-67.9,40.8-88.9c3.5-2.6,1.2,4.8-13.1,31.2c-12.8,24.2-36.6,80-3.9,123.7
	c0.9-31.1,8.3-62.8,20.7-92.3c18-41.1,56-112.4,59-169.2c1.7,1.2,6.9,4.8,9.3,6.2c6.9,4.1,12.2,10.1,18.9,15.5
	c18.6,15,42.8,13.8,63.7,1.8c9.3-5.3,16.8-11.3,23.9-13.5c14.9-4.7,26.7-12.9,33.5-22.5c11.6,45.6,38.6,111.5,55.8,143.7
	c9.2,17.1,27.5,53.3,35.4,97c5-0.2,10.5,0.6,16.4,2.1c20.7-53.6-17.6-111.4-35-127.5c-7.1-6.9-7.4-9.9-3.9-9.8
	c18.9,16.8,43.8,50.6,52.8,88.6c4.2,17.4,5,35.6,0.6,53.6c24.6,10.2,53.9,26.9,46.1,52.2c-3.3-0.2-4.8,0-6.3,0
	c4.8-15.2-5.9-26.4-34.2-39.2c-29.4-12.9-54-12.9-57.5,18.8c-18.2,6.3-27.5,22.1-32.1,41c-4.2,16.8-5.4,37.1-6.6,59.9
	c-0.8,11.6-5.4,27-10.2,43.5C464.1,691,397.2,706,340.7,667.5L340.7,667.5z M727.2,650.2c-1.4,25.2-61.9,29.9-94.9,69.8
	c-19.8,23.6-44.1,36.6-65.5,38.3c-21.3,1.7-39.8-7.2-50.6-29c-7.1-16.7-3.6-34.7,1.7-54.5c5.6-21.3,13.8-43.2,14.9-61
	c1.2-22.8,2.6-42.8,6.3-58.1c3.9-15.5,9.9-25.8,20.6-31.7c0.5-0.3,1.1-0.5,1.5-0.8c1.2,19.8,11,39.9,28.2,44.3
	c18.9,5,46.1-11.3,57.6-24.5c13.5-0.5,23.6-1.4,33.9,7.7c14.9,12.8,10.7,45.5,25.7,62.5C722.5,630.7,727.6,642.5,727.2,650.2
	L727.2,650.2z M343.7,223.2c3,2.9,7.1,6.8,12,10.7c9.9,7.8,23.7,15.9,41,15.9c17.4,0,33.8-8.9,47.7-16.2
	c7.4-3.9,16.4-10.5,22.2-15.6c5.9-5.1,8.9-9.5,4.7-9.9s-3.9,3.9-9,7.7c-6.6,4.8-14.6,11.1-20.9,14.7c-11.1,6.3-29.3,15.3-44.9,15.3
	s-28.1-7.2-37.4-14.6c-4.7-3.8-8.6-7.5-11.6-10.4c-2.3-2.1-2.9-6.9-6.5-7.4C339.1,213.3,338.5,219,343.7,223.2L343.7,223.2z"/>
</svg>
