<?xml version="1.0" encoding="utf-8"?>
<!-- Generator: Adobe Illustrator 25.4.1, SVG Export Plug-In . SVG Version: 6.00 Build 0)  -->
<svg version="1.1" id="SurrealDB" xmlns="http://www.w3.org/2000/svg" xmlns:xlink="http://www.w3.org/1999/xlink" x="0px" y="0px"
	 viewBox="0 0 4556.1 979.9" style="enable-background:new 0 0 4556.1 979.9;" xml:space="preserve">
<style type="text/css">
	.st0{fill:#FFFFFF;}
	.st1{fill:url(#SVGID_1_);}
	.st2{fill:url(#SVGID_00000079444265072686883610000001634762113120712855_);}
</style>
<path class="st0" d="M1433.5,444.7c75,11.9,148.7,64.2,147.5,141.6c0,47.6-20.2,91.6-57.1,122.5c-129.7,102.4-359.3,40.5-362.9-132
	h119c4.8,44,40.5,79.7,88,78.5c50,0,94-20.2,94-69c0-22.6-13.1-34.5-34.5-45.2c-79.7-32.1-197.5-30.9-246.3-110.6
	c-29.7-53.5-5.9-126.1,41.6-164.2c39.3-32.1,90.4-45.2,145.2-45.2c97.6-1.2,202.3,61.9,202.3,159.4h-121.4
	c-15.5-54.7-92.8-71.4-139.2-41.6c-23.8,15.5-33.3,44-10.7,61.9C1334.7,429.3,1388.3,437.6,1433.5,444.7z"/>
<path class="st0" d="M2750.6,349.6c123.7-3.6,232,115.4,205.8,241.5h-304.6c28.6,78.5,132.1,95.2,180.8,28.6h116.6
	c-48.8,145.2-242.7,184.4-347.4,78.5C2467.4,566.1,2568.5,348.4,2750.6,349.6z M2849.3,517.3c-35.7-92.8-161.8-92.8-197.5,0H2849.3z
	"/>
<path class="st0" d="M3472.8,221.1h107.1v537.7h-107.1V221.1z"/>
<g>
	<g>
		<linearGradient id="SVGID_1_" gradientUnits="userSpaceOnUse" x1="3824.8271" y1="107.1732" x2="4261.2393" y2="863.0616">
			<stop  offset="0" style="stop-color:#FF00A0"/>
			<stop  offset="1" style="stop-color:#9600FF"/>
		</linearGradient>
		<path class="st1" d="M3938,241.3c-33.3-13.1-70.2-20.2-110.6-20.2h-199.9v536.6h199.9c42.8,0,80.9-7.1,114.2-20.2
			c102.3-39.3,159.4-140.4,158.2-248.7C4101,380.5,4040.3,280.5,3938,241.3z M3985.6,489.9c1.1,84.5-69.1,161.9-154.7,160.7h-97.6
			V329.3h97.6C3916.6,328.1,3986.8,406.6,3985.6,489.9z M4485.2,470.9c84.5-64.2,39.3-205.8-52.4-238c-20.2-8.3-41.6-11.9-64.2-11.9
			h-221.3v536.6c13.1,0,251,0,251,0c42.8,0,83.3-15.5,113-44C4578.1,649.4,4570.9,518.5,4485.2,470.9z M4253.2,329.3H4365
			c28.6,0,52.3,20.2,51.2,50c1.2,28.6-22.6,52.4-51.2,51.2h-111.8V329.3z M4392.4,650.6h-138V534h138c28.6-1.2,52.4,30.9,51.2,59.5
			C4444.8,620.8,4421,651.8,4392.4,650.6z"/>
	</g>
</g>
<path class="st0" d="M1928.4,374.5v173.7c-5.9,141.6-199.9,141.6-204.6,0c0-15.5,0-189.2,0-198.7h-107.1v198.7
	c0,21.4,3.6,42.8,9.5,63.1c27.4,86.9,108.3,146.3,199.9,146.3s172.5-59.5,199.9-146.3c5.9-20.2,9.5-41.6,9.5-63.1V349.6h-107.1
	L1928.4,374.5L1928.4,374.5z"/>
<path class="st0" d="M3425.2,554.2c0-113-92.8-204.6-208.2-204.6s-208.2,91.6-208.2,204.6s92.7,204.6,208.2,204.6
	c36.9,0,71.4-9.5,101.1-26.2v26.2h107.1L3425.2,554.2L3425.2,554.2L3425.2,554.2z M3215.8,660.1c-60.7,0-108.3-47.6-108.3-107.1
	c0-58.3,48.8-107.1,108.3-107.1c60.7,0,108.3,47.6,108.3,107.1S3275.2,660.1,3215.8,660.1z"/>
<path class="st0" d="M2292.5,349.6c-91.6,0-172.5,59.5-199.9,146.3c-5.9,20.2-9.5,41.6-9.5,63.1v198.7l0,0h107.1
	c0,0,0-190.3,0-198.7c2.4-71.4,52.4-107.1,102.3-107.1L2292.5,349.6L2292.5,349.6z"/>
<path class="st0" d="M2520.9,349.6c-91.6,0-172.5,59.5-199.9,146.3c-5.9,20.2-9.5,41.6-9.5,63.1v198.7l0,0h107.1
	c0,0,0-190.3,0-198.7c2.4-71.4,52.3-107.1,102.3-107.1L2520.9,349.6L2520.9,349.6z"/>
<linearGradient id="SVGID_00000115476139646371791520000013582882883915620277_" gradientUnits="userSpaceOnUse" x1="203.3477" y1="867.3028" x2="636.6956" y2="116.7221" gradientTransform="matrix(1 0 0 -1 0 982)">
	<stop  offset="0" style="stop-color:#FF00A0"/>
	<stop  offset="1" style="stop-color:#9600FF"/>
</linearGradient>
<path style="fill:url(#SVGID_00000115476139646371791520000013582882883915620277_);" d="M420,257.8L653.3,387v-51.8L420,206.3
	c-34.7,19.2-202.4,111.9-233.3,128.9c28.7,15.9,330.1,182.4,513.3,283.6v51.6c-24.9,13.8-280,154.7-280,154.7
	C350.2,786.6,209.7,709,140,670.4V515.7l280,154.7l46.7-25.8L93.3,438.4v257.9L420,876.7c32.2-17.8,302.8-167.3,326.6-180.5V593.1
	L280,335.2L420,257.8z M93.3,283.6v103.2l466.6,257.9l-140,77.4L186.6,592.9v51.8l233.3,128.9c34.7-19.2,202.4-111.9,233.3-128.9
	C624.5,628.8,323.2,462.3,140,361v-51.6c24.9-13.8,280-154.7,280-154.7c69.7,38.6,210.2,116.2,280,154.7v154.7L420,309.4l-46.7,25.8
	l373.3,206.3V283.6L420,103.1C387.7,121,117.2,270.5,93.3,283.6z M420,0L0,232.1v515.7l420,232.1l420-232V232.1L420,0z M793.2,722
	L420,928.3L46.7,722V257.9L420,51.6l373.3,206.3L793.2,722z"/>
</svg>
