<?xml version="1.0" encoding="utf-8"?>
<!-- Generator: Adobe Illustrator 26.3.1, SVG Export Plug-In . SVG Version: 6.00 Build 0)  -->
<svg version="1.1" id="SurrealDB" xmlns="http://www.w3.org/2000/svg" xmlns:xlink="http://www.w3.org/1999/xlink" x="0px" y="0px"
	 viewBox="0 0 4561.3 979.9" style="enable-background:new 0 0 4561.3 979.9;" xml:space="preserve">
<style type="text/css">
	.st0{fill:url(#DB_00000183232565943397496420000013963025990426679961_);}
	.st1{fill:#FFFFFF;}
	.st2{fill:url(#Icon_00000114074415667529858430000007822674728134343839_);}
</style>
<linearGradient id="DB_00000120523484628375337660000015251638193323227539_" gradientUnits="userSpaceOnUse" x1="3829.7141" y1="1271.7076" x2="4266.2515" y2="515.6029" gradientTransform="matrix(1 0 0 -1 0 1379.6727)">
	<stop  offset="0" style="stop-color:#FF00A0"/>
	<stop  offset="1" style="stop-color:#9600FF"/>
</linearGradient>
<path id="DB" style="fill:url(#DB_00000120523484628375337660000015251638193323227539_);" d="M4490.4,471.8
	c84.5-64.2,39.3-205.8-52.4-238c-20.2-8.3-41.6-11.9-64.2-11.9h-221.3v536.6c13.1,0,251,0,251,0c42.8,0,83.3-15.5,113-44
	C4583.3,650.3,4576.1,519.4,4490.4,471.8z M4259.6,330.2h110.6c28.6,0,52.3,20.2,51.2,50c1.2,28.6-22.6,52.4-51.2,51.2h-110.6V330.2
	z M4397.6,651.5h-138V534.9h138c28.6-1.2,52.4,30.9,51.2,59.5C4450,621.7,4426.2,652.7,4397.6,651.5z M3942.7,242.2
	c-33.3-13.1-70.2-20.2-110.6-20.2h-199.9v536.6h199.9c42.8,0,80.9-7.1,114.2-20.2c102.3-39.3,159.4-140.4,158.2-248.7
	C4105.7,381.4,4045,281.4,3942.7,242.2z M3990.3,490.8c1.1,84.5-69.1,161.9-154.7,160.7H3738V330.2h97.6
	C3921.3,329,3991.5,407.5,3990.3,490.8z"/>
<path id="l_00000025403636360595826800000011768100850424527237_" class="st1" d="M3477.1,221.9v536.6h107.1V221.9H3477.1z"/>
<path class="st1" d="M3429.1,552.6c0-115.9-94-209.9-209.9-209.9s-209.9,94-209.9,209.9s94,209.9,209.9,209.9
	c37.3,0,72.4-9.8,102.8-26.9v22.8h107.1L3429.1,552.6C3429.1,552.7,3429.1,552.7,3429.1,552.6z M3219.2,655.4
	c-56.8,0-102.8-46-102.8-102.8s46-102.8,102.8-102.8s102.8,46,102.8,102.8S3276,655.4,3219.2,655.4z"/>
<path class="st1" d="M2751.4,655.4c-43.3,0-80.4-26.8-95.5-64.7h301.9c2.3-12.3,3.4-25.1,3.4-38c0-115.9-94-209.9-209.9-209.9
	s-209.9,94-209.9,209.9s94,209.9,209.9,209.9c92.3,0,170.7-59.6,198.8-142.3h-121.3C2810,641.8,2782.3,655.4,2751.4,655.4z
	 M2751.4,449.9c43.3,0,80.4,26.8,95.5,64.7h-191C2671,476.7,2708.1,449.9,2751.4,449.9z"/>
<path class="st1" d="M2307.4,552.5v205.7h106.9V552.5c0-56.8,46.1-102.9,102.9-102.9v-107C2401.3,342.6,2307.4,436.6,2307.4,552.5z"
	/>
<path class="st1" d="M2073.5,552.5v205.7h106.9V552.5c0-56.8,46.1-102.9,102.9-102.9v-107C2167.4,342.6,2073.5,436.6,2073.5,552.5z"
	/>
<path class="st1" d="M1918.6,346.8v206.1c-5.9,141.6-199.9,141.6-204.6,0V439.2v-92.5h-107.1v92.5v113.6c0,21.4,3.6,42.8,9.5,63.1
	c27.4,86.9,108.3,146.3,199.9,146.3s172.5-59.4,199.9-146.2c5.9-20.2,9.5-41.6,9.5-63.1V439.2v-92.5L1918.6,346.8L1918.6,346.8z"/>
<path id="S_00000169540344908778767970000011130257505604909976_" class="st1" d="M1411.9,444.2c-45.1-7.2-98.6-15.6-134.2-44.5
	c-22.6-18.2-13.1-47,10.7-62.8c46.3-30.3,123.4-13.3,138.9,42.1h121.1c0-98.9-104.5-162.9-201.9-161.7
	c-54.7,0-105.7,13.3-144.9,45.8c-47.4,38.6-71.1,112.2-41.5,166.6c48.7,80.8,166.3,79.6,245.8,112.1c21.4,10.9,34.5,23,34.5,45.8
	c0,49.5-43.9,70-93.8,70c-47.4,1.2-83-35-87.8-79.6H1140c3.6,175,232.7,237.8,362.1,133.9c36.8-31.4,57-76,57-124.2
	C1560.2,509.3,1486.7,456.2,1411.9,444.2z"/>
<linearGradient id="Icon_00000160878018773216179600000018185612752997618316_" gradientUnits="userSpaceOnUse" x1="203.3477" y1="1031.6578" x2="636.6956" y2="1782.2385" gradientTransform="matrix(1 0 0 1 0 -916.9607)">
	<stop  offset="0" style="stop-color:#FF00A0"/>
	<stop  offset="1" style="stop-color:#9600FF"/>
</linearGradient>
<path id="Icon" style="fill:url(#Icon_00000160878018773216179600000018185612752997618316_);" d="M420,257.8L653.3,387v-51.8
	L420,206.3c-34.7,19.2-202.4,111.9-233.3,128.9c28.7,15.9,330.1,182.4,513.3,283.6v51.6c-24.9,13.8-280,154.7-280,154.7
	C350.2,786.6,209.7,709,140,670.4V515.7l280,154.7l46.7-25.8L93.3,438.4v257.9L420,876.7c32.2-17.8,302.8-167.3,326.6-180.5V593.1
	L280,335.2L420,257.8z M93.3,283.6v103.2l466.6,257.9l-140,77.4L186.6,592.9v51.8l233.3,128.9c34.7-19.2,202.4-111.9,233.3-128.9
	C624.5,628.8,323.2,462.3,140,361v-51.6c24.9-13.8,280-154.7,280-154.7c69.7,38.6,210.2,116.2,280,154.7v154.7L420,309.4l-46.7,25.8
	l373.3,206.3V283.6L420,103.1C387.7,121,117.2,270.5,93.3,283.6z M420,0L0,232.1v515.7l420,232.1l420-232V232.1L420,0z M793.2,722
	L420,928.3L46.7,722V257.9L420,51.6l373.3,206.3L793.2,722z"/>
</svg>
