<?xml version="1.0" encoding="utf-8"?>
<!-- Generator: Adobe Illustrator 25.4.1, SVG Export Plug-In . SVG Version: 6.00 Build 0)  -->
<svg version="1.1" id="SurrealDB" xmlns="http://www.w3.org/2000/svg" xmlns:xlink="http://www.w3.org/1999/xlink" x="0px" y="0px"
	 viewBox="0 0 3395.1 537.8" style="enable-background:new 0 0 3395.1 537.8;" xml:space="preserve">
<style type="text/css">
	.st0{fill:#FFFFFF;}
	.st1{fill:url(#SVGID_1_);}
</style>
<path class="st0" d="M272.5,223.7c75,11.9,148.7,64.2,147.5,141.6c0,47.6-20.2,91.6-57.1,122.5C233.2,590.2,3.6,528.3,0,355.8h119
	c4.8,44,40.5,79.7,88,78.5c50,0,94-20.2,94-69c0-22.6-13.1-34.5-34.5-45.2C186.8,288,69,289.2,20.2,209.5
	C-9.5,156,14.3,83.4,61.8,45.3C101.1,13.2,152.2,0.1,207,0.1C304.6-1.1,409.3,62,409.3,159.5H287.9c-15.5-54.7-92.8-71.4-139.2-41.6
	c-23.8,15.5-33.3,44-10.7,61.9C173.7,208.3,227.3,216.6,272.5,223.7z"/>
<path class="st0" d="M1589.6,128.6c123.7-3.6,232,115.4,205.8,241.5h-304.6c28.6,78.5,132.1,95.2,180.8,28.6h116.6
	c-48.8,145.2-242.7,184.4-347.4,78.5C1306.4,345.1,1407.5,127.4,1589.6,128.6z M1688.3,296.3c-35.7-92.8-161.8-92.8-197.5,0H1688.3z
	"/>
<path class="st0" d="M2311.8,0.1h107.1v537.7h-107.1V0.1z"/>
<g>
	<g>
		<linearGradient id="SVGID_1_" gradientUnits="userSpaceOnUse" x1="2663.8269" y1="-113.8267" x2="3100.2393" y2="642.0616">
			<stop  offset="0" style="stop-color:#FF00A0"/>
			<stop  offset="1" style="stop-color:#9600FF"/>
		</linearGradient>
		<path class="st1" d="M3324.2,249.9c84.5-64.2,39.3-205.8-52.4-238C3251.6,3.6,3230.2,0,3207.6,0h-221.3v536.6c13.1,0,251,0,251,0
			c42.8,0,83.3-15.5,113-44C3417.1,428.4,3409.9,297.5,3324.2,249.9z M3092.2,108.3H3204c28.6,0,52.3,20.2,51.2,50
			c1.2,28.6-22.6,52.4-51.2,51.2h-111.8V108.3z M3231.4,429.6h-138V313h138c28.6-1.2,52.4,30.9,51.2,59.5
			C3283.8,399.8,3260,430.8,3231.4,429.6z M2777,20.3c-33.3-13.1-70.2-20.2-110.6-20.2h-199.9v536.6h199.9
			c42.8,0,80.9-7.1,114.2-20.2c102.3-39.3,159.4-140.4,158.2-248.7C2940,159.5,2879.3,59.5,2777,20.3z M2824.6,268.9
			c1.1,84.5-69.1,161.9-154.7,160.7h-97.6V108.3h97.6C2755.6,107.1,2825.8,185.6,2824.6,268.9z"/>
	</g>
</g>
<path class="st0" d="M767.4,153.5v173.7c-5.9,141.6-199.9,141.6-204.6,0c0-15.5,0-189.2,0-198.7H455.7v198.7
	c0,21.4,3.6,42.8,9.5,63.1c27.4,86.9,108.3,146.3,199.9,146.3S837.6,477.1,865,390.3c5.9-20.2,9.5-41.6,9.5-63.1V128.6H767.4V153.5
	L767.4,153.5z"/>
<path class="st0" d="M2264.2,333.2c0-113-92.8-204.6-208.2-204.6s-208.2,91.6-208.2,204.6s92.7,204.6,208.2,204.6
	c36.9,0,71.4-9.5,101.1-26.2v26.2h107.1L2264.2,333.2L2264.2,333.2L2264.2,333.2z M2054.8,439.1c-60.7,0-108.3-47.6-108.3-107.1
	c0-58.3,48.8-107.1,108.3-107.1c60.7,0,108.3,47.6,108.3,107.1S2114.2,439.1,2054.8,439.1z"/>
<path class="st0" d="M1131.5,128.6c-91.6,0-172.5,59.5-199.9,146.3c-5.9,20.2-9.5,41.6-9.5,63.1v198.7l0,0h107.1
	c0,0,0-190.3,0-198.7c2.4-71.4,52.4-107.1,102.3-107.1V128.6L1131.5,128.6z"/>
<path class="st0" d="M1359.9,128.6c-91.6,0-172.5,59.5-199.9,146.3c-5.9,20.2-9.5,41.6-9.5,63.1v198.7l0,0h107.1
	c0,0,0-190.3,0-198.7c2.4-71.4,52.3-107.1,102.3-107.1V128.6L1359.9,128.6z"/>
</svg>
