<svg width="840" height="840" viewBox="0 0 840 840" fill="none" xmlns="http://www.w3.org/2000/svg">
<path d="M672.682 362.325C662.503 359.995 657.414 358.83 654.699 357.208C651.69 355.409 650.629 354.425 648.61 351.56C646.788 348.974 645.347 344.316 642.465 335C629.053 291.651 603.198 252.977 567.866 223.943C526.197 189.701 473.933 170.988 420 171C336.281 171 262.82 215.277 221.761 281.688C218.105 287.602 216.277 290.558 214.51 292.278C212.626 294.112 211.541 294.867 209.167 295.998C206.942 297.059 203.419 297.771 196.374 299.197C157.249 307.11 121.532 327.426 94.6659 357.355C63.9706 391.549 46.9947 435.883 47 481.833C47 584.718 130.614 668.333 233.5 668.333H637.583C723.373 668.333 793 598.705 793 512.917C793 439.254 741.651 378.113 672.682 362.325Z" fill="#FF00A0"/>
</svg>
