<?xml version="1.0" encoding="utf-8"?>
<!-- Generator: Adobe Illustrator 26.3.1, SVG Export Plug-In . SVG Version: 6.00 Build 0)  -->
<svg version="1.1" id="SurrealDB" xmlns="http://www.w3.org/2000/svg" xmlns:xlink="http://www.w3.org/1999/xlink" x="0px" y="0px"
	 viewBox="0 0 840 979.9" style="enable-background:new 0 0 840 979.9;" xml:space="preserve">
<style type="text/css">
	.st0{fill:url(#SVGID_1_);}
</style>
<linearGradient id="SVGID_1_" gradientUnits="userSpaceOnUse" x1="184.2886" y1="98.5924" x2="628.1017" y2="867.2993">
	<stop  offset="0" style="stop-color:#FF00A0"/>
	<stop  offset="1" style="stop-color:#9600FF"/>
</linearGradient>
<path class="st0" d="M147.8,168.3c20.6,0,37.1,16.6,37.1,37.1v74.2c0,20.6-16.5,37.1-37.1,37.1H73.6c-20.5,0-37.1-16.5-37.1-37.1
	v-74.2c0-20.5,16.6-37.1,37.1-37.1H147.8z M754.1,193c27.4,0,49.5,22.2,49.5,49.5c0,27.4-22.1,49.5-49.5,49.5H308.6
	c-27.4,0-49.5-22.1-49.5-49.5c0-27.3,22.1-49.5,49.5-49.5H754.1z M754.1,440.5c27.4,0,49.5,22.1,49.5,49.5s-22.1,49.5-49.5,49.5
	H308.6c-27.4,0-49.5-22.1-49.5-49.5s22.1-49.5,49.5-49.5H754.1z M754.1,687.9c27.4,0,49.5,22.1,49.5,49.5
	c0,27.4-22.1,49.5-49.5,49.5H308.6c-27.4,0-49.5-22.1-49.5-49.5c0-27.4,22.1-49.5,49.5-49.5H754.1z M36.4,452.8
	c0-20.6,16.6-37.1,37.1-37.1h74.2c20.6,0,37.1,16.5,37.1,37.1v74.2c0,20.6-16.5,37.1-37.1,37.1H73.6c-20.5,0-37.1-16.5-37.1-37.1
	V452.8z M147.8,663.2c20.6,0,37.1,16.5,37.1,37.1v74.2c0,20.6-16.5,37.1-37.1,37.1H73.6c-20.5,0-37.1-16.5-37.1-37.1v-74.2
	c0-20.6,16.6-37.1,37.1-37.1H147.8z"/>
</svg>
