<svg width="840" height="840" viewBox="0 0 840 840" fill="none" xmlns="http://www.w3.org/2000/svg">
<g clip-path="url(#clip0_4153_577)">
<path fill-rule="evenodd" clip-rule="evenodd" d="M640.261 55.8947C633.411 58.1204 627.471 64.0606 615.59 75.9411L560.793 130.738C552.873 138.658 548.913 142.618 547.429 147.185C546.124 151.202 546.124 155.529 547.429 159.546C548.913 164.112 552.873 168.072 560.793 175.993L664.031 279.23C671.951 287.151 675.912 291.111 680.478 292.595C684.495 293.9 688.822 293.9 692.839 292.595C697.405 291.111 701.366 287.151 709.286 279.23L764.083 224.434C775.963 212.553 781.903 206.613 784.129 199.763C786.087 193.738 786.087 187.247 784.129 181.222C781.903 174.372 775.963 168.432 764.083 156.551L683.472 75.9411C671.592 64.0606 665.652 58.1204 658.802 55.8947C652.776 53.937 646.286 53.937 640.261 55.8947ZM631.854 356.662C639.774 348.742 643.735 344.781 645.218 340.215C646.524 336.198 646.524 331.871 645.218 327.854C643.735 323.288 639.774 319.327 631.854 311.407L528.617 208.17C520.696 200.249 516.736 196.289 512.169 194.805C508.153 193.5 503.826 193.5 499.809 194.805C495.242 196.289 491.282 200.249 483.362 208.169L79.5199 612.011C74.3314 617.2 71.7371 619.794 69.8818 622.822C68.237 625.506 67.0249 628.432 66.29 631.493C65.4611 634.946 65.4611 638.614 65.461 645.951L65.4611 645.952L65.461 726.563C65.4611 743.364 65.4611 751.765 68.7309 758.182C71.607 763.827 76.1965 768.417 81.8413 771.293C88.2587 774.563 96.6595 774.563 113.461 774.563L194.071 774.563L194.073 774.563C201.409 774.563 205.078 774.563 208.53 773.734C211.592 772.999 214.518 771.787 217.202 770.142C220.23 768.287 222.824 765.692 228.012 760.504L631.854 356.662Z" fill="#FF00A0"/>
</g>
<defs>
<clipPath id="clip0_4153_577">
<rect width="840" height="840" fill="white"/>
</clipPath>
</defs>
</svg>
