<?xml version="1.0" encoding="utf-8"?>
<!-- Generator: Adobe Illustrator 25.4.1, SVG Export Plug-In . SVG Version: 6.00 Build 0)  -->
<svg version="1.1" id="SurrealDB" xmlns="http://www.w3.org/2000/svg" xmlns:xlink="http://www.w3.org/1999/xlink" x="0px" y="0px"
	 viewBox="0 0 840 979.9" style="enable-background:new 0 0 840 979.9;" xml:space="preserve">
<style type="text/css">
	.st0{fill-rule:evenodd;clip-rule:evenodd;fill:url(#Shape_00000019668236898707270700000006574197991446695315_);}
</style>
<g id="Page-1">
	<g id="Core" transform="translate(-549.000000, -129.000000)">
		<g id="drive-document" transform="translate(549.000000, 129.000000)">
			
				<linearGradient id="Shape_00000181088702892924178630000002675937823032255667_" gradientUnits="userSpaceOnUse" x1="176.2219" y1="62.396" x2="669.861" y2="917.4039">
				<stop  offset="0" style="stop-color:#FF00A0"/>
				<stop  offset="1" style="stop-color:#9600FF"/>
			</linearGradient>
			
				<path id="Shape" style="fill-rule:evenodd;clip-rule:evenodd;fill:url(#Shape_00000181088702892924178630000002675937823032255667_);" d="
				M721.9,105.6H124.1c-47,0-85.4,38.4-85.4,85.4v597.8c0,47,38.4,85.4,85.4,85.4h597.8c47,0,85.4-38.4,85.4-85.4V191
				C807.3,144,768.9,105.6,721.9,105.6L721.9,105.6z M636.5,361.8h-427v-85.4h427V361.8L636.5,361.8z M636.5,532.6h-427v-85.4h427
				V532.6L636.5,532.6z M508.4,703.4H209.5V618h298.9V703.4L508.4,703.4z"/>
		</g>
	</g>
</g>
</svg>
