<svg width="840" height="840" viewBox="0 0 840 840" fill="none" xmlns="http://www.w3.org/2000/svg">
<path d="M248.438 801.503C211.584 801.503 180.13 788.477 154.078 762.425C128.026 736.373 115 704.919 115 668.065V172.438C115 135.584 128.026 104.13 154.078 78.0783C180.13 52.0261 211.584 39 248.438 39H648.752C669.721 39 687.678 46.4598 702.623 61.3795C717.568 76.2991 725.028 94.2561 725.002 115.25V573.705C725.002 583.872 722.461 593.086 717.377 601.346C712.294 609.606 705.304 615.961 696.409 620.409C687.513 624.857 680.523 631.376 675.44 639.967C670.356 648.558 667.815 657.924 667.815 668.065C667.815 678.206 670.356 687.738 675.44 696.659C680.523 705.58 687.513 711.934 696.409 715.721C704.669 718.899 711.506 723.664 716.92 730.018C722.334 736.373 725.028 743.998 725.002 752.893V762.425C725.002 773.227 721.342 782.441 714.022 790.066C706.702 797.691 697.654 801.503 686.877 801.503H248.438ZM248.438 725.253H603.955C600.143 716.357 597.131 707.309 594.919 698.108C592.708 688.907 591.59 678.893 591.564 668.065C591.564 657.898 592.518 648.049 594.424 638.518C596.33 628.987 599.507 619.773 603.955 610.877H248.438C231.917 610.877 218.256 616.444 207.454 627.576C196.651 638.709 191.25 652.205 191.25 668.065C191.25 684.586 196.651 698.247 207.454 709.05C218.256 719.852 231.917 725.253 248.438 725.253Z" fill="#FF00A0"/>
</svg>
