<svg width="840" height="840" viewBox="0 0 840 840" fill="none" xmlns="http://www.w3.org/2000/svg">
<rect x="258" y="129" width="545" height="86" rx="20" fill="#FF00A0"/>
<circle cx="110" cy="668" r="74" fill="#FF00A0"/>
<rect x="258" y="377" width="545" height="86" rx="20" fill="#FF00A0"/>
<rect x="258" y="625" width="545" height="86" rx="20" fill="#FF00A0"/>
<path d="M100.592 88.5319C104.873 81.4642 115.127 81.4642 119.408 88.5319L140.308 123.034C141.84 125.563 144.325 127.369 147.204 128.044L186.475 137.259C194.52 139.147 197.689 148.899 192.29 155.155L165.935 185.693C164.003 187.932 163.054 190.853 163.301 193.8L166.673 233.997C167.364 242.231 159.068 248.259 151.45 245.057L114.262 229.429C111.536 228.284 108.464 228.284 105.738 229.429L68.5503 245.057C60.9323 248.259 52.6364 242.231 53.3271 233.997L56.6987 193.8C56.9459 190.853 55.9965 187.932 54.0648 185.693L27.7098 155.155C22.3109 148.899 25.4797 139.147 33.5245 137.259L72.7963 128.044C75.6747 127.369 78.1601 125.563 79.6919 123.034L100.592 88.5319Z" fill="#FF00A0"/>
<path d="M100.592 336.532C104.873 329.464 115.127 329.464 119.408 336.532L140.308 371.034C141.84 373.563 144.325 375.369 147.204 376.044L186.475 385.259C194.52 387.147 197.689 396.899 192.29 403.155L165.935 433.693C164.003 435.932 163.054 438.853 163.301 441.8L166.673 481.997C167.364 490.231 159.068 496.259 151.45 493.057L114.262 477.429C111.536 476.284 108.464 476.284 105.738 477.429L68.5503 493.057C60.9323 496.259 52.6364 490.231 53.3271 481.997L56.6987 441.8C56.9459 438.853 55.9965 435.932 54.0648 433.693L27.7098 403.155C22.3109 396.899 25.4797 387.147 33.5245 385.259L72.7963 376.044C75.6747 375.369 78.1601 373.563 79.6919 371.034L100.592 336.532Z" fill="#FF00A0"/>
</svg>
