<svg width="840" height="840" viewBox="0 0 840 840" fill="none" xmlns="http://www.w3.org/2000/svg">
<path fill-rule="evenodd" clip-rule="evenodd" d="M387.6 227.8C398.801 227.8 404.402 227.8 408.68 225.62C412.443 223.703 415.503 220.643 417.42 216.88C419.6 212.602 419.6 207.001 419.6 195.8V113.269C419.6 89.0326 419.6 76.9143 424.392 71.3036C428.551 66.4353 434.788 63.8521 441.171 64.355C448.527 64.9346 457.095 73.5046 474.23 90.6446L780.578 397.073C788.497 404.993 792.456 408.953 793.939 413.52C795.244 417.536 795.244 421.863 793.938 425.879C792.455 430.445 788.495 434.405 780.576 442.324L474.227 748.673C457.092 765.808 448.525 774.375 441.169 774.954C434.787 775.456 428.55 772.873 424.392 768.005C419.6 762.394 419.6 750.278 419.6 726.045V643.5C419.6 632.299 419.6 626.698 417.42 622.42C415.503 618.657 412.443 615.597 408.68 613.68C404.402 611.5 398.801 611.5 387.6 611.5H68C56.799 611.5 51.1984 611.5 46.9202 609.32C43.1569 607.403 40.0973 604.343 38.1799 600.58C36 596.302 36 590.701 36 579.5V259.8C36 248.599 36 242.998 38.1799 238.72C40.0973 234.957 43.1569 231.897 46.9202 229.98C51.1984 227.8 56.799 227.8 68 227.8H387.6Z" fill="#FF00A0"/>
</svg>
