<svg width="840" height="840" viewBox="0 0 840 840" fill="none" xmlns="http://www.w3.org/2000/svg">
<path fill-rule="evenodd" clip-rule="evenodd" d="M680.773 361.927C697.908 344.792 706.475 336.225 707.054 328.869C707.556 322.487 704.973 316.25 700.105 312.092C694.494 307.3 682.378 307.3 658.145 307.3H587.3C576.099 307.3 570.498 307.3 566.22 305.12C562.457 303.203 559.397 300.143 557.48 296.38C555.3 292.102 555.3 286.501 555.3 275.3V69C555.3 57.799 555.3 52.1984 553.12 47.9202C551.203 44.1569 548.143 41.0973 544.38 39.1799C540.102 37 534.501 37 523.3 37H317.1C305.899 37 300.298 37 296.02 39.1799C292.257 41.0973 289.197 44.1569 287.28 47.9202C285.1 52.1984 285.1 57.799 285.1 69V275.1C285.1 286.301 285.1 291.902 282.92 296.18C281.003 299.943 277.943 303.003 274.18 304.92C269.902 307.1 264.301 307.1 253.1 307.1H182.22C157.997 307.1 145.885 307.1 140.275 311.891C135.407 316.047 132.823 322.283 133.324 328.665C133.901 336.019 142.463 344.586 159.586 361.72L397.573 599.858C405.493 607.783 409.453 611.746 414.02 613.231C418.037 614.537 422.365 614.538 426.383 613.233C430.951 611.749 434.912 607.788 442.835 599.865L680.773 361.927ZM137 712.5C125.799 712.5 120.198 712.5 115.92 714.68C112.157 716.597 109.097 719.657 107.18 723.42C105 727.698 105 733.299 105 744.5V770.7C105 781.901 105 787.502 107.18 791.78C109.097 795.543 112.157 798.603 115.92 800.52C120.198 802.7 125.799 802.7 137 802.7H703.4C714.601 802.7 720.202 802.7 724.48 800.52C728.243 798.603 731.303 795.543 733.22 791.78C735.4 787.502 735.4 781.901 735.4 770.7V744.5C735.4 733.299 735.4 727.698 733.22 723.42C731.303 719.657 728.243 716.597 724.48 714.68C720.202 712.5 714.601 712.5 703.4 712.5H137Z" fill="#FF00A0"/>
</svg>
