<svg width="840" height="840" viewBox="0 0 840 840" fill="none" xmlns="http://www.w3.org/2000/svg">
<path fill-rule="evenodd" clip-rule="evenodd" d="M434.883 51.5821C426.935 42.7279 413.062 42.7278 405.115 51.5821L335.894 128.702C331.106 134.037 323.83 136.401 316.821 134.9L215.49 113.195C203.856 110.703 192.632 118.858 191.407 130.692L180.736 233.771C179.998 240.901 175.501 247.09 168.949 249.995L74.2122 291.997C63.3355 296.819 59.0485 310.013 65.0135 320.308L116.969 409.973C120.562 416.174 120.562 423.825 116.969 430.027L65.0135 519.692C59.0485 529.986 63.3355 543.18 74.2122 548.002L168.949 590.004C175.501 592.909 179.998 599.099 180.736 606.229L191.407 709.308C192.632 721.142 203.856 729.296 215.49 726.805L316.821 705.1C323.83 703.599 331.106 705.963 335.894 711.297L405.115 788.418C413.062 797.272 426.935 797.272 434.883 788.418L504.104 711.297C508.892 705.963 516.168 703.599 523.177 705.1L624.508 726.805C636.142 729.296 647.366 721.142 648.591 709.308L659.262 606.229C660 599.099 664.497 592.909 671.049 590.004L765.786 548.002C776.662 543.18 780.949 529.986 774.984 519.692L723.029 430.027C719.435 423.825 719.435 416.174 723.029 409.973L774.984 320.308C780.949 310.013 776.662 296.819 765.786 291.997L671.049 249.995C664.497 247.09 660 240.901 659.262 233.771L648.591 130.692C647.366 118.858 636.142 110.703 624.508 113.195L523.177 134.9C516.168 136.401 508.892 134.037 504.104 128.703L434.883 51.5821ZM595.906 340.277C594.382 336.382 590.921 332.921 583.999 326C577.078 319.078 573.617 315.617 569.722 314.093C565.035 312.259 559.83 312.259 555.143 314.093C551.248 315.617 547.787 319.078 540.866 326L397.813 469.052C393.853 473.013 391.873 474.993 389.589 475.735C387.581 476.387 385.418 476.387 383.409 475.735C381.126 474.993 379.146 473.013 375.186 469.052L299.133 393C292.211 386.078 288.751 382.617 284.855 381.093C280.169 379.259 274.963 379.259 270.277 381.093C266.382 382.617 262.921 386.078 255.999 393C249.078 399.921 245.617 403.382 244.093 407.277C242.258 411.964 242.258 417.169 244.093 421.856C245.617 425.751 249.078 429.212 255.999 436.133L363.872 544.006C371.792 551.926 375.752 555.886 380.319 557.37C384.336 558.675 388.663 558.675 392.68 557.37C397.246 555.886 401.206 551.926 409.127 544.006L583.999 369.133C590.921 362.212 594.382 358.751 595.906 354.856C597.74 350.169 597.74 344.964 595.906 340.277Z" fill="#FF00A0"/>
</svg>
