<?xml version="1.0" encoding="utf-8"?>
<!-- Generator: Adobe Illustrator 26.3.1, SVG Export Plug-In . SVG Version: 6.00 Build 0)  -->
<svg version="1.1" id="SurrealDB_World" xmlns="http://www.w3.org/2000/svg" xmlns:xlink="http://www.w3.org/1999/xlink" x="0px"
	 y="0px" viewBox="0 0 4559.9 979.9" style="enable-background:new 0 0 4559.9 979.9;" xml:space="preserve">
<style type="text/css">
	.st0{fill:url(#DB_00000096777128416411932470000016404883816536593324_);}
	.st1{fill:url(#Icon_00000000922080890811286530000009308661439326778542_);}
</style>
<linearGradient id="DB_00000095308353123814869740000001267609652073601440_" gradientUnits="userSpaceOnUse" x1="3828.4177" y1="107.6209" x2="4264.9048" y2="863.639">
	<stop  offset="0" style="stop-color:#FF00A0"/>
	<stop  offset="1" style="stop-color:#9600FF"/>
</linearGradient>
<path id="DB_00000016758915625124994280000016461386885611437752_" style="fill:url(#DB_00000095308353123814869740000001267609652073601440_);" d="
	M4489,471.5c84.5-64.2,39.3-205.8-52.4-238c-20.2-8.3-41.6-11.9-64.2-11.9h-221.3v536.5c13.1,0,251,0,251,0c42.8,0,83.3-15.5,113-44
	C4581.9,649.9,4574.7,519,4489,471.5z M4258.2,328.6h0.1h110.6c28.6,0,52.3,20.2,51.2,50c1.2,28.6-22.6,52.4-51.2,51.2h-110.6h-0.1
	V328.6z M4396.2,651.1h-138V534.5h138c28.6-1.2,52.4,30.9,51.2,59.5C4448.6,621.3,4424.8,652.3,4396.2,651.1z M3835.1,221.6H3631
	v536.6h204.1c148.2,0,268.3-120.1,268.3-268.3S3983.2,221.6,3835.1,221.6z M3835.1,651c0,0,0,0-0.1,0h-97V328.6h96.9c0,0,0,0,0.1,0
	c89.1,0,161.3,72.2,161.3,161.2S3924.1,651,3835.1,651z"/>
<path id="l_00000103242653431021337910000013777398160531640960_" d="M3476.1,221.6v536.6h107.1V221.6H3476.1z"/>
<path id="a_00000114047365147663133050000011517088098890313346_" d="M3428.3,552.3c0-115.9-94-209.9-209.9-209.9
	s-209.9,94-209.9,209.9s94,209.9,209.9,209.9c37.3,0,72.4-9.8,102.8-26.9v22.8h107.1L3428.3,552.3
	C3428.3,552.4,3428.3,552.4,3428.3,552.3z M3218.4,655.1c-56.8,0-102.8-46-102.8-102.8s46-102.8,102.8-102.8s102.8,46,102.8,102.8
	S3275.2,655.1,3218.4,655.1z"/>
<path id="e_00000011725667220689958660000006084327059228220294_" d="M2750.9,655c-43.3,0-80.4-26.8-95.5-64.7h301.9
	c2.3-12.3,3.4-25.1,3.4-38c0-115.9-94-209.9-209.9-209.9s-209.9,94-209.9,209.9s94,209.9,209.9,209.9c92.3,0,170.7-59.6,198.8-142.3
	h-121.3C2809.5,641.4,2781.8,655,2750.9,655z M2750.9,449.5c43.3,0,80.4,26.8,95.5,64.7h-191
	C2670.5,476.3,2707.6,449.5,2750.9,449.5z"/>
<path id="r_00000127037221966445926390000000420214718076556192_" d="M2516.6,342.5c-91.6,0-172.5,59.4-199.9,146.2
	c-5.9,20.2-9.5,41.6-9.5,63.1v113.7V758h107.1V551.8c2.9-70.8,52.9-106.2,102.7-106.2V342.5C2516.9,342.5,2516.7,342.5,2516.6,342.5
	z"/>
<path id="r_00000038389045402950038880000017212340058551358609_" d="M2282.9,342.5c-91.6,0-172.5,59.4-199.9,146.2
	c-5.9,20.2-9.5,41.6-9.5,63.1v113.7V758h107.1V551.8c2.9-70.8,52.9-106.2,102.7-106.2V342.5C2283.2,342.5,2283,342.5,2282.9,342.5z"
	/>
<path id="u_00000165935716996902656450000018140784225834785210_" d="M1918.6,552.9c-5.9,141.6-199.9,141.6-204.6,0V439.2v-92.5
	h-107.1v92.5v113.6c0,21.4,3.6,42.8,9.5,63.1c27.4,86.9,108.3,146.3,199.9,146.3s172.5-59.4,199.9-146.2c5.9-20.2,9.5-41.6,9.5-63.1
	V439.2v-92.5h-107.1L1918.6,552.9L1918.6,552.9z"/>
<path id="S_00000166662375492201169010000009477598989473204101_" d="M1412,444.4c-45.1-7.2-98.5-15.6-134.1-44.5
	c-22.6-18.2-13.1-47,10.7-62.8c46.3-30.3,123.3-13.3,138.8,42.1h121c0-98.8-104.4-162.8-201.8-161.6c-54.7,0-105.6,13.3-144.8,45.8
	c-47.4,38.6-71.1,112.1-41.5,166.5c48.7,80.8,166.2,79.6,245.7,112c21.4,10.9,34.5,23,34.5,45.8c0,49.5-43.9,70-93.8,70
	c-47.4,1.2-83-35-87.8-79.6h-118.7c3.6,174.9,232.6,237.7,361.9,133.8c36.8-31.4,57-76,57-124.1
	C1560.2,509.4,1486.7,456.4,1412,444.4z"/>
<linearGradient id="Icon_00000119836746319581189210000002732538487089119662_" gradientUnits="userSpaceOnUse" x1="203.3477" y1="114.6972" x2="636.6956" y2="865.2778">
	<stop  offset="0" style="stop-color:#FF00A0"/>
	<stop  offset="1" style="stop-color:#9600FF"/>
</linearGradient>
<path id="Icon_00000113316389820613155240000001228407474500178859_" style="fill:url(#Icon_00000119836746319581189210000002732538487089119662_);" d="
	M420,257.8L653.3,387v-51.8L420,206.3c-34.7,19.2-202.4,111.9-233.3,128.9c28.7,15.9,330.1,182.4,513.3,283.6v51.6
	c-24.9,13.8-280,154.7-280,154.7C350.2,786.6,209.7,709,140,670.4V515.7l280,154.7l46.7-25.8L93.3,438.4v257.9L420,876.7
	c32.2-17.8,302.8-167.3,326.6-180.5V593.1L280,335.2L420,257.8z M93.3,283.6v103.2l466.6,257.9l-140,77.4L186.6,592.9v51.8
	l233.3,128.9c34.7-19.2,202.4-111.9,233.3-128.9C624.5,628.8,323.2,462.3,140,361v-51.6c24.9-13.8,280-154.7,280-154.7
	c69.7,38.6,210.2,116.2,280,154.7v154.7L420,309.4l-46.7,25.8l373.3,206.3V283.6L420,103.1C387.7,121,117.2,270.5,93.3,283.6z
	 M420,0L0,232.1v515.7l420,232.1l420-232V232.1L420,0z M793.2,722L420,928.3L46.7,722V257.9L420,51.6l373.3,206.3L793.2,722z"/>
</svg>
