<?xml version="1.0" encoding="utf-8"?>
<!-- Generator: Adobe Illustrator 25.4.1, SVG Export Plug-In . SVG Version: 6.00 Build 0)  -->
<svg version="1.1" id="SurrealDB" xmlns="http://www.w3.org/2000/svg" xmlns:xlink="http://www.w3.org/1999/xlink" x="0px" y="0px"
	 viewBox="0 0 425 388.9" style="enable-background:new 0 0 425 388.9;" xml:space="preserve">
<style type="text/css">
	.st0{fill-rule:evenodd;clip-rule:evenodd;fill:#FFFFFF;}
	.st1{fill-rule:evenodd;clip-rule:evenodd;fill:url(#SVGID_1_);}
</style>
<path class="st0" d="M308.1,0c-36.1,0-72.2,17-95.6,44.6C189.1,17,153,0,116.9,0C51,0,0,51,0,116.9c0,80.8,72.2,146.6,182.8,244.4
	l29.8,27.6l29.8-27.6C350.6,261.4,425,195.5,425,116.9C425,51,374,0,308.1,0z"/>
<linearGradient id="SVGID_1_" gradientUnits="userSpaceOnUse" x1="128.6721" y1="-25.5468" x2="329.079" y2="321.5681">
	<stop  offset="0" style="stop-color:#FF00A0"/>
	<stop  offset="1" style="stop-color:#9600FF"/>
</linearGradient>
<path class="st1" d="M308.1,0c-36.1,0-72.2,17-95.6,44.6C189.1,17,153,0,116.9,0C51,0,0,51,0,116.9c0,80.8,72.2,146.6,182.8,244.4
	l29.8,27.6l29.8-27.6C350.6,261.4,425,195.5,425,116.9C425,51,374,0,308.1,0z"/>
</svg>
