<?xml version="1.0" encoding="utf-8"?>
<!-- Generator: Adobe Illustrator 25.4.1, SVG Export Plug-In . SVG Version: 6.00 Build 0)  -->
<svg version="1.1" id="SurrealDB" xmlns="http://www.w3.org/2000/svg" xmlns:xlink="http://www.w3.org/1999/xlink" x="0px" y="0px"
	 viewBox="0 0 840 979.9" style="enable-background:new 0 0 840 979.9;" xml:space="preserve">
<style type="text/css">
	.st0{fill-rule:evenodd;clip-rule:evenodd;fill:url(#Shape_00000155115250965723631030000012437289636226481833_);}
</style>
<g id="Page-1_00000113329102428745952570000003781686671624200879_">
	<g id="Core_00000177485130367820201730000005990147902507991704_" transform="translate(-466.000000, -295.000000)">
		<g id="lock" transform="translate(466.000000, 295.500000)">
			
				<linearGradient id="Shape_00000083787907218752321330000012291353437660736916_" gradientUnits="userSpaceOnUse" x1="186.9749" y1="764.3048" x2="589.8096" y2="66.5744" gradientTransform="matrix(1 0 0 -1 0 977.39)">
				<stop  offset="0" style="stop-color:#FF00A0"/>
				<stop  offset="1" style="stop-color:#9600FF"/>
			</linearGradient>
			
				<path id="Shape_00000009571166028171920290000008416744471001894559_" style="fill-rule:evenodd;clip-rule:evenodd;fill:url(#Shape_00000083787907218752321330000012291353437660736916_);" d="
				M638.6,362.1h-36.5v-72.7c0-101.9-80.2-182.1-182.1-182.1S238,187.5,238,289.4v72.7h-36.5c-40,0-72.7,32.7-72.7,72.7v364
				c0,40,32.7,72.7,72.7,72.7h436.9c40,0,72.7-32.7,72.7-72.7V435.1C711.6,395.1,678.8,362.1,638.6,362.1L638.6,362.1z M420.3,689.9
				c-40,0-72.7-32.7-72.7-72.7c0-40,32.7-72.7,72.7-72.7s72.7,32.7,72.7,72.7C493,657.1,460.3,689.9,420.3,689.9L420.3,689.9z
				 M533.2,362.1H307.4v-72.7c0-61.9,51-112.9,112.9-112.9s112.9,51,112.9,112.9V362.1L533.2,362.1z"/>
		</g>
	</g>
</g>
</svg>
