<svg width="840" height="840" viewBox="0 0 840 840" fill="none" xmlns="http://www.w3.org/2000/svg">
<path fill-rule="evenodd" clip-rule="evenodd" d="M638.8 292.8H627.9C618.939 292.8 614.459 292.8 611.036 291.056C608.026 289.522 605.578 287.074 604.044 284.064C602.3 280.641 602.3 276.161 602.3 267.2V220.1C602.3 118.2 522.1 38 420.2 38C318.3 38 238.2 118.2 238.2 220.1V267.2C238.2 276.161 238.2 280.641 236.456 284.064C234.922 287.074 232.474 289.522 229.464 291.056C226.041 292.8 221.561 292.8 212.6 292.8H201.7C161.7 292.8 129 325.5 129 365.5V729.5C129 769.5 161.7 802.2 201.7 802.2H638.6C678.6 802.2 711.3 769.5 711.3 729.5V365.8C711.8 325.8 679 292.8 638.8 292.8ZM420.5 620.6C380.5 620.6 347.8 587.9 347.8 547.9C347.8 507.9 380.5 475.2 420.5 475.2C460.5 475.2 493.2 507.9 493.2 547.9C493.2 587.8 460.5 620.6 420.5 620.6ZM533.4 267.2C533.4 276.161 533.4 280.641 531.656 284.064C530.122 287.074 527.674 289.522 524.664 291.056C521.241 292.8 516.761 292.8 507.8 292.8H333.2C324.239 292.8 319.759 292.8 316.336 291.056C313.326 289.522 310.878 287.074 309.344 284.064C307.6 280.641 307.6 276.161 307.6 267.2V220.1C307.6 158.2 358.6 107.2 420.5 107.2C482.4 107.2 533.4 158.2 533.4 220.1V267.2Z" fill="#FF00A0"/>
</svg>
