<svg width="840" height="840" viewBox="0 0 840 840" fill="none" xmlns="http://www.w3.org/2000/svg">
<path fill-rule="evenodd" clip-rule="evenodd" d="M749.089 230L420 40L90.9102 230V610L420 800L749.089 610V230ZM584 326L584 326C577.079 319.078 573.618 315.618 569.723 314.093C565.036 312.259 559.831 312.259 555.144 314.093C551.249 315.618 547.788 319.078 540.867 326L397.814 469.053C393.854 473.013 391.874 474.993 389.59 475.735C387.582 476.387 385.418 476.387 383.41 475.735C381.127 474.993 379.147 473.013 375.186 469.053L299.134 393C292.212 386.078 288.751 382.618 284.856 381.093C280.17 379.259 274.964 379.259 270.278 381.093C266.382 382.618 262.922 386.078 256 393C249.079 399.921 245.618 403.382 244.093 407.277C242.259 411.964 242.259 417.17 244.093 421.856C245.618 425.751 249.079 429.212 256 436.133L256 436.133L363.873 544.006L363.873 544.006C371.793 551.926 375.753 555.886 380.32 557.37C384.337 558.675 388.664 558.675 392.681 557.37C397.247 555.886 401.207 551.926 409.127 544.006L409.128 544.006L584 369.133C590.922 362.212 594.382 358.751 595.907 354.856C597.741 350.169 597.741 344.964 595.907 340.277C594.382 336.382 590.922 332.921 584 326Z" fill="#FF00A0"/>
</svg>
